<?xml version="1.0" encoding="UTF-8"?>
<svg width="83px" height="127px" viewBox="0 0 83 127" version="1.1" xmlns="http://www.w3.org/2000/svg" xmlns:xlink="http://www.w3.org/1999/xlink">
    <!-- Generator: Sketch 57.1 (83088) - https://sketch.com -->
    <title>Untitled 2</title>
    <desc>Created with Sketch.</desc>
    <g id="Page-1" stroke="none" stroke-width="1" fill="none" fill-rule="evenodd">
        <g id="brand_logo" fill="#6DBD45" fill-rule="nonzero">
            <path d="M76.26,1.11 C48.94,6.55 21.43,21.16 8.32,46.82 C-4.79,72.48 0.82,101.28 16.11,124.54 C17.3069736,126.436887 19.5785155,127.361585 21.76,126.84 C41.25,123.32 61.06,114.73 71.45,96.96 C79,84.05 80.25,68.36 76.96,53.96 C75.5633987,47.4954553 73.0380861,41.3277348 69.5,35.74 C68.3199834,33.822982 66.0334085,32.8921639 63.85,33.44 C50.85,37.11 41.98,50.16 35.75,61.32 C29.62,72.32 23.89,84.96 22.68,97.63 C22.06,104.03 32.07,103.99 32.68,97.63 C33.68,87.25 38.86,76.51 43.77,67.49 C48.68,58.47 55.86,46.08 66.51,43.09 L60.86,40.79 C68.42,52.27 70.64,67.97 67.21,81.19 C61.42,103.43 40.05,113.41 19.1,117.19 L24.75,119.49 C11.26,98.98 5.42,73.44 17.5,50.83 C29.72,27.94 54.35,15.65 78.91,10.75 C85.22,9.5 82.55,-0.14 76.26,1.11 L76.26,1.11 Z" id="Path"></path>
        </g>
    </g>
</svg>