<?xml version="1.0" encoding="UTF-8" standalone="no"?>
<!DOCTYPE svg PUBLIC "-//W3C//DTD SVG 1.1//EN" "http://www.w3.org/Graphics/SVG/1.1/DTD/svg11.dtd">
<svg width="100%" height="100%" viewBox="0 0 2481 3508" version="1.1" xmlns="http://www.w3.org/2000/svg" xmlns:xlink="http://www.w3.org/1999/xlink" xml:space="preserve" xmlns:serif="http://www.serif.com/" style="fill-rule:evenodd;clip-rule:evenodd;stroke-linejoin:round;stroke-miterlimit:2;">
    <g id="Logo" transform="matrix(25.2284,6.65089,-6.65089,25.2284,577.21,-74.9206)">
        <g id="Fill-1" transform="matrix(1,0,0,1,-307.355,-674.357)">
            <path d="M331.869,787.195C320.311,768.128 310.841,772.701 325.449,794.924C327.567,798.146 327.064,798.002 330.847,797.121C349.467,793.758 368.394,785.551 378.32,768.574C385.533,756.24 386.727,741.25 383.584,727.492C382.25,721.316 379.769,715.466 376.457,710.085C374.459,706.839 370.271,718.42 370.272,718.423C375.805,728.945 377.208,742.179 374.269,753.508C369.065,773.495 350.691,783.118 331.869,787.195C331.869,787.195 331.869,787.195 331.869,787.196C331.869,787.196 331.869,787.195 331.869,787.195Z" style="fill:rgb(98,170,62);"/>
        </g>
        <g id="Fill-11" serif:id="Fill-1" transform="matrix(1,0,0,1,-307.355,-674.357)">
            <path d="M370.272,718.423C376.812,716.328 381.425,724.184 382.094,723.484C382.99,722.546 378.352,713.164 376.457,710.085C374.459,706.839 374.757,706.96 371.059,707.888C358.639,711.394 350.165,723.862 344.213,734.524C338.356,745.033 336.63,749.457 334.498,760.243C333.307,766.27 341.099,770.99 341.115,770.862C342.369,760.959 347.184,749.036 351.875,740.419C356.031,732.784 361.889,722.624 370.245,718.418C370.246,718.417 370.27,718.423 370.272,718.423Z" style="fill:url(#_Linear1);"/>
        </g>
        <g id="Fill-12" serif:id="Fill-1" transform="matrix(1,0,0,1,-307.355,-674.357)">
            <path d="M370.272,718.423C376.812,716.328 381.425,724.184 382.094,723.484C382.99,722.546 378.352,713.164 376.457,710.085C374.459,706.839 374.757,706.96 371.059,707.888C358.639,711.394 350.165,723.862 344.213,734.524C338.356,745.033 336.63,749.457 334.498,760.243C333.307,766.27 341.099,770.99 341.115,770.862C342.369,760.959 347.184,749.036 351.875,740.419C356.031,732.784 361.889,722.624 370.245,718.418C370.246,718.417 370.27,718.423 370.272,718.423Z" style="fill:url(#_Linear2);"/>
        </g>
        <g id="Fill-13" serif:id="Fill-1" transform="matrix(1,0,0,1,-307.355,-674.357)">
            <path d="M382.915,677C356.741,682.599 330.532,696.156 318.006,720.671C305.481,745.186 310.841,772.701 325.449,794.924C327.567,798.146 327.064,798.002 330.847,797.121C372.482,787.425 332.3,787.303 331.869,787.195C331.869,787.195 331.869,787.195 331.869,787.196C331.869,787.196 331.869,787.195 331.869,787.195C320.311,768.128 315.799,745.048 326.777,724.502C338.452,702.633 362.104,690.941 377.663,688.161C384.158,687 383.087,676.963 382.915,677Z" style="fill:url(#_Linear3);"/>
        </g>
        <g id="Fill-14" serif:id="Fill-1" transform="matrix(1,0,0,1,-307.355,-674.357)">
            <path d="M382.915,677C356.741,682.599 330.532,696.156 318.006,720.671C305.481,745.186 310.841,772.701 325.449,794.924C327.567,798.146 327.064,798.002 330.847,797.121C372.482,787.425 332.3,787.303 331.869,787.195C331.869,787.195 331.869,787.195 331.869,787.196C331.869,787.196 331.869,787.195 331.869,787.195C320.311,768.128 315.799,745.048 326.777,724.502C338.452,702.633 362.104,690.941 377.663,688.161C384.158,687 383.087,676.963 382.915,677Z" style="fill:url(#_Linear4);"/>
        </g>
        <path d="M62.947,44.043C62.942,44.039 65.332,43.236 68.03,43.373C71.756,43.562 74.139,46.041 74.455,46.873C74.525,47.057 74.731,47.658 74.716,47.662C74.647,47.679 75.33,49.417 75.587,50.636C76.636,55.618 77.882,70.218 75.205,70.795C71.815,71.526 65.731,50.728 65.731,50.688C65.731,50.329 64.659,47.795 64.266,46.897C63.976,46.234 63.623,45.468 63.302,44.82C63.196,44.604 62.947,44.043 62.947,44.043Z" style="fill:url(#_Linear5);"/>
        <path d="M24.521,112.84C24.474,112.639 26.532,115.955 28.736,117.234C32.8,119.593 36.925,118.783 36.925,118.783L40.263,118.24C40.263,118.24 46.633,115.629 52.061,112.412C59.865,107.787 67.413,101.729 65.566,98.856C63.801,96.112 54.859,101.079 47.254,104.9C41.814,107.633 36.792,109.313 36.792,109.313C36.792,109.313 31.57,111.06 29.53,111.623C28.283,111.968 24.521,112.84 24.521,112.84Z" style="fill:url(#_Linear6);"/>
    </g>
    <defs>
        <linearGradient id="_Linear1" x1="0" y1="0" x2="1" y2="0" gradientUnits="userSpaceOnUse" gradientTransform="matrix(21.7103,-48.2883,64.1495,28.8415,340.377,765.531)"><stop offset="0" style="stop-color:rgb(92,161,57);stop-opacity:1"/><stop offset="1" style="stop-color:rgb(133,200,100);stop-opacity:1"/></linearGradient>
        <linearGradient id="_Linear2" x1="0" y1="0" x2="1" y2="0" gradientUnits="userSpaceOnUse" gradientTransform="matrix(-8.76817,-23.4536,31.1574,-11.6482,380.815,732.811)"><stop offset="0" style="stop-color:rgb(92,161,57);stop-opacity:0"/><stop offset="1" style="stop-color:rgb(171,217,148);stop-opacity:0.45"/></linearGradient>
        <linearGradient id="_Linear3" x1="0" y1="0" x2="1" y2="0" gradientUnits="userSpaceOnUse" gradientTransform="matrix(18.7105,-97.0109,162.386,31.3193,328.177,795.601)"><stop offset="0" style="stop-color:rgb(74,131,46);stop-opacity:1"/><stop offset="1" style="stop-color:rgb(109,189,69);stop-opacity:1"/></linearGradient>
        <linearGradient id="_Linear4" x1="0" y1="0" x2="1" y2="0" gradientUnits="userSpaceOnUse" gradientTransform="matrix(-7.80417,-20.5793,34.4475,-13.0634,373.573,702.441)"><stop offset="0" style="stop-color:rgb(74,131,46);stop-opacity:0"/><stop offset="1" style="stop-color:rgb(168,216,144);stop-opacity:1"/></linearGradient>
        <linearGradient id="_Linear5" x1="0" y1="0" x2="1" y2="0" gradientUnits="userSpaceOnUse" gradientTransform="matrix(-4.97582,-21.8969,16.049,-3.64694,72.8268,65.3149)"><stop offset="0" style="stop-color:rgb(98,170,60);stop-opacity:1"/><stop offset="1" style="stop-color:rgb(53,106,44);stop-opacity:1"/></linearGradient>
        <linearGradient id="_Linear6" x1="0" y1="0" x2="1" y2="0" gradientUnits="userSpaceOnUse" gradientTransform="matrix(22.3401,-7.73893,3.67882,10.6197,29.4074,117.131)"><stop offset="0" style="stop-color:rgb(51,89,32);stop-opacity:1"/><stop offset="1" style="stop-color:rgb(98,170,62);stop-opacity:1"/></linearGradient>
    </defs>
</svg>
